HIERARCHY
ROOT Hips
{
	OFFSET 0.000000 0.000000 0.000000
	CHANNELS 6 Xposition Yposition Zposition Zrotation Yrotation Xrotation 
	JOINT LHipJoint
	{
		OFFSET 0.000000 0.000000 0.000000
		CHANNELS 3 Zrotation Yrotation Xrotation
		JOINT LeftUpLeg
		{
			OFFSET 1.363060 -1.794630 0.839290
			CHANNELS 3 Zrotation Yrotation Xrotation
			JOINT LeftLeg
			{
				OFFSET 2.448110 -6.726130 0.000000
				CHANNELS 3 Zrotation Yrotation Xrotation
				JOINT LeftFoot
				{
					OFFSET 2.562200 -7.039590 0.000000
					CHANNELS 3 Zrotation Yrotation Xrotation
					JOINT LeftToeBase
					{
						OFFSET 0.157640 -0.433110 2.322550
						CHANNELS 3 Zrotation Yrotation Xrotation
						End Site
						{
							OFFSET 0.000000 0.000000 0.000000
						}
					}
				}
			}
		}
	}
	JOINT RHipJoint
	{
		OFFSET 0.000000 0.000000 0.000000
		CHANNELS 3 Zrotation Yrotation Xrotation
		JOINT RightUpLeg
		{
			OFFSET -1.305520 -1.794630 0.839290
			CHANNELS 3 Zrotation Yrotation Xrotation
			JOINT RightLeg
			{
				OFFSET -2.542530 -6.985550 0.000000
				CHANNELS 3 Zrotation Yrotation Xrotation
				JOINT RightFoot
				{
					OFFSET -2.568260 -7.056230 0.000000
					CHANNELS 3 Zrotation Yrotation Xrotation
					JOINT RightToeBase
					{
						OFFSET -0.164730 -0.452590 2.363150
						CHANNELS 3 Zrotation Yrotation Xrotation
						End Site
						{
							OFFSET 0.000000 0.000000 0.000000
						}
					}
				}
			}
		}
	}
	JOINT LowerBack
	{
		OFFSET 0.000000 0.000000 0.000000
		CHANNELS 3 Zrotation Yrotation Xrotation
		JOINT Spine
		{
			OFFSET 0.028270 2.035590 -0.193380
			CHANNELS 3 Zrotation Yrotation Xrotation
			JOINT Spine1
			{
				OFFSET 0.056720 2.048850 -0.042750
				CHANNELS 3 Zrotation Yrotation Xrotation
				JOINT Neck
				{
					OFFSET 0.000000 0.000000 0.000000
					CHANNELS 3 Zrotation Yrotation Xrotation
					JOINT Neck1
					{
						OFFSET -0.054170 1.746240 0.172020
						CHANNELS 3 Zrotation Yrotation Xrotation
						JOINT Head
						{
							OFFSET 0.104070 1.761360 -0.123970
							CHANNELS 3 Zrotation Yrotation Xrotation
							End Site
							{
								OFFSET 0.000000 0.000000 0.000000
							}
						}
					}
				}
				JOINT LeftShoulder
				{
					OFFSET 0.000000 0.000000 0.000000
					CHANNELS 3 Zrotation Yrotation Xrotation
					JOINT LeftArm
					{
						OFFSET 3.362410 1.200890 -0.311210
						CHANNELS 3 Zrotation Yrotation Xrotation
						JOINT LeftForeArm
						{
							OFFSET 4.983000 -0.000000 -0.000000
							CHANNELS 3 Zrotation Yrotation Xrotation
							JOINT LeftHand
							{
								OFFSET 3.483560 -0.000000 -0.000000
								CHANNELS 3 Zrotation Yrotation Xrotation
								JOINT LeftFingerBase
								{
									OFFSET 0.000000 0.000000 0.000000
									CHANNELS 3 Zrotation Yrotation Xrotation
									JOINT LeftHandIndex1
									{
										OFFSET 0.715260 -0.000000 -0.000000
										CHANNELS 3 Zrotation Yrotation Xrotation
										End Site
										{
											OFFSET 0.000000 0.000000 0.000000
										}
									}
								}
								JOINT LThumb
								{
									OFFSET 0.000000 0.000000 0.000000
									CHANNELS 3 Zrotation Yrotation Xrotation
									End Site
									{
										OFFSET 0.000000 0.000000 0.000000
									}
								}
							}
						}
					}
				}
				JOINT RightShoulder
				{
					OFFSET 0.000000 0.000000 0.000000
					CHANNELS 3 Zrotation Yrotation Xrotation
					JOINT RightArm
					{
						OFFSET -3.136600 1.374050 -0.404650
						CHANNELS 3 Zrotation Yrotation Xrotation
						JOINT RightForeArm
						{
							OFFSET -5.241900 -0.000000 -0.000000
							CHANNELS 3 Zrotation Yrotation Xrotation
							JOINT RightHand
							{
								OFFSET -3.444170 -0.000000 -0.000000
								CHANNELS 3 Zrotation Yrotation Xrotation
								JOINT RightFingerBase
								{
									OFFSET 0.000000 0.000000 0.000000
									CHANNELS 3 Zrotation Yrotation Xrotation
									JOINT RightHandIndex1
									{
										OFFSET -0.622530 -0.000000 -0.000000
										CHANNELS 3 Zrotation Yrotation Xrotation
										End Site
										{
											OFFSET 0.000000 0.000000 0.000000
										}
									}
								}
								JOINT RThumb
								{
									OFFSET 0.000000 0.000000 0.000000
									CHANNELS 3 Zrotation Yrotation Xrotation
									End Site
									{
										OFFSET 0.000000 0.000000 0.000000
									}
								}
							}
						}
					}
				}
			}
		}
	}
}
MOTION
Frames: 12
Frame Time: 0.008333
0.342235 17.420685 0.288528 -2.165827 -22.830347 4.959138 -3.098184 2.746563 3.442765 -12.896158 3.816731 -18.393940 3.120810 12.435976 39.063606 0.311544 3.712544 -10.282707 0.639700 -5.117000 -14.242700 0.512815 -3.240862 1.392534 16.292825 22.013460 -14.323110 -3.678782 -11.840862 38.949693 -2.317415 4.035430 -9.956407 -1.273600 7.152500 -20.168000 -0.625191 -0.754576 -3.058514 1.125304 -1.297765 -6.335235 3.666993 -0.481085 -3.341313 -13.591387 -9.095094 -15.135906 10.118314 -10.464629 9.578013 7.122200 -5.358000 11.166300 -9.817188 -10.782914 3.722530 -84.946648 -24.353397 50.672930 129.277399 -50.781666 -96.046119 -0.083177 2.654821 17.681897 -47.368153 37.639391 -30.935000 -7.125000 0.000000 0.000000 -74.206100 50.660800 -19.578000 8.938593 10.841721 2.837126 80.926038 3.851068 24.996212 -146.917989 38.410469 -108.037848 1.267308 -1.634997 35.393320 41.484686 5.272285 5.135600 7.125000 0.000000 0.000000 40.943500 -18.085800 37.706400 
0.340108 17.419728 0.284168 -2.089801 -22.662435 4.918155 -3.093400 2.742457 3.436619 -12.937087 3.770133 -18.406681 3.131511 12.442852 39.091288 0.356021 3.583613 -10.183734 0.634100 -5.095100 -14.180000 0.514941 -3.240017 1.393690 16.247070 22.038899 -14.301840 -3.686236 -11.853703 38.995525 -2.260277 3.822470 -10.024352 -1.240200 7.061800 -19.898400 -0.673560 -0.739896 -3.043665 1.080359 -1.278275 -6.298316 3.643551 -0.471238 -3.312624 -13.628154 -9.140108 -15.102084 10.147852 -10.526400 9.578910 7.140200 -5.387400 11.181000 -9.819764 -10.775087 3.719449 -85.031679 -24.290539 50.750704 129.232948 -50.816782 -96.011315 -0.091520 2.656923 17.903026 -47.653600 37.490188 -31.077500 -7.125000 0.000000 0.000000 -74.154400 50.540200 -19.227100 8.932390 10.836844 2.831476 81.074149 3.766802 24.925599 -146.853607 38.469567 -108.001699 1.273240 -1.621721 35.553305 41.374423 5.530608 5.307800 7.125000 0.000000 0.000000 40.845500 -17.917800 37.759400 
0.338832 17.417814 0.279275 -2.088593 -22.467155 4.917957 -3.081288 2.738072 3.427156 -12.901678 3.748305 -18.458023 3.146719 12.453012 39.116283 0.428295 3.378622 -10.014019 0.619100 -5.035500 -14.009700 0.515326 -3.239502 1.396577 16.280870 22.042290 -14.292243 -3.692109 -11.863519 39.036036 -2.206517 3.612518 -10.130539 -1.241000 7.063800 -19.904500 -0.685245 -0.742215 -2.990063 1.085861 -1.281374 -6.305190 3.652478 -0.470335 -3.356389 -13.659011 -9.161336 -15.056877 10.140000 -10.560202 9.628540 7.139500 -5.409500 11.211200 -9.825274 -10.761097 3.704304 -85.130879 -24.118626 50.818868 129.240431 -50.834490 -96.020284 -0.093189 2.652273 17.881625 -47.611220 37.406617 -30.990700 -7.125000 0.000000 0.000000 -74.030300 50.507000 -19.055500 8.929254 10.823896 2.825066 81.138427 3.610871 24.802087 -146.777763 38.531233 -107.960048 1.285489 -1.604532 35.705612 41.238830 5.874415 5.536600 7.125000 0.000000 0.000000 40.717400 -17.689600 37.838100 
0.338832 17.416431 0.275234 -2.056773 -22.300079 4.898608 -3.073446 2.733415 3.419438 -12.899954 3.701730 -18.486950 3.158257 12.462156 39.143672 0.478565 3.240025 -9.927547 0.589800 -4.917000 -13.672000 0.515944 -3.238594 1.399001 16.272132 22.049495 -14.282177 -3.697805 -11.873641 39.075320 -2.151439 3.415531 -10.181541 -1.226200 7.023200 -19.784200 -0.718341 -0.716228 -2.914255 1.080388 -1.247015 -6.317664 3.660969 -0.448824 -3.439604 -13.707970 -9.210341 -14.882444 10.148940 -10.632476 9.589863 7.144900 -5.451600 11.171900 -9.826333 -10.739303 3.691129 -85.278296 -23.965082 50.975945 129.107113 -50.916850 -95.926535 -0.061993 2.632159 17.750098 -47.090790 37.489726 -30.625100 -7.125000 0.000000 0.000000 -73.893100 50.633300 -19.292600 8.922177 10.807675 2.822134 81.188541 3.448804 24.670390 -146.692458 38.601636 -107.910097 1.286258 -1.590847 35.781413 41.102701 6.034661 5.625400 7.125000 0.000000 0.000000 40.642300 -17.619200 37.791700 
0.339789 17.415474 0.272044 -2.022869 -22.142062 4.855347 -3.067194 2.732577 3.414582 -12.913450 3.675398 -18.495628 3.166446 12.473569 39.182156 0.471376 3.263251 -9.970937 0.642600 -5.128400 -14.275300 0.516777 -3.239152 1.401921 16.262736 22.047220 -14.247724 -3.704104 -11.883978 39.115722 -2.100777 3.232162 -10.235446 -1.236500 7.051400 -19.867700 -0.719280 -0.706732 -2.872054 1.061004 -1.233560 -6.285358 3.646123 -0.442232 -3.439995 -13.764294 -9.254206 -14.794857 10.195917 -10.688323 9.548563 7.176000 -5.479700 11.152100 -9.826256 -10.725289 3.687838 -85.356602 -23.907242 51.080179 128.977574 -50.986833 -95.829025 -0.048772 2.624837 17.765047 -46.990886 37.560363 -30.594700 -7.125000 0.000000 0.000000 -73.939400 50.684300 -19.456500 8.918474 10.799424 2.818244 81.259993 3.311632 24.684762 -146.682566 38.613956 -107.908679 1.266868 -1.587372 35.834329 40.948694 5.918332 5.506300 7.125000 0.000000 0.000000 40.640600 -17.791600 37.540600 
0.340214 17.412390 0.268747 -2.018876 -22.040898 4.833139 -3.060981 2.730741 3.409705 -12.899574 3.676213 -18.520593 3.179963 12.486658 39.222235 0.507622 3.179822 -9.989328 0.662800 -5.206900 -14.499700 0.513899 -3.241380 1.402973 16.278603 22.072509 -14.223188 -3.715358 -11.893272 39.157328 -2.098100 3.224361 -10.244414 -1.221800 7.010900 -19.747500 -0.729883 -0.721621 -2.828536 1.121130 -1.252471 -6.255863 3.731228 -0.449578 -3.410726 -13.951585 -9.259313 -14.878116 10.231278 -10.650867 9.599922 7.234000 -5.473300 11.212800 -9.825747 -10.724827 3.682993 -85.441213 -23.852292 51.015639 128.997514 -50.993234 -95.836211 -0.048312 2.626935 17.862176 -47.071503 37.554198 -30.656700 -7.125000 0.000000 0.000000 -73.970000 50.667400 -19.433500 8.916667 10.790912 2.817000 81.184619 3.199899 24.814744 -146.660480 38.621330 -107.904192 1.246933 -1.585537 35.924216 40.788154 5.819713 5.401600 7.125000 0.000000 0.000000 40.631200 -17.949200 37.295900 
0.340640 17.410688 0.265769 -2.020712 -21.933663 4.862025 -3.052581 2.721864 3.398892 -12.886605 3.645998 -18.582323 3.191730 12.498522 39.253201 0.552775 3.062753 -9.944094 0.631700 -5.085600 -14.153000 0.511514 -3.237097 1.401550 16.289670 22.091582 -14.267795 -3.724592 -11.905640 39.203849 -2.057314 3.081351 -10.283786 -1.247400 7.081300 -19.956500 -0.718456 -0.726496 -2.829840 1.135687 -1.259256 -6.250797 3.748974 -0.452582 -3.399428 -14.021783 -9.261404 -14.895923 10.258103 -10.642204 9.648567 7.266100 -5.474300 11.254000 -9.825817 -10.718193 3.675895 -85.443887 -23.788698 51.015486 128.963857 -51.012254 -95.810041 -0.031534 2.620394 17.889578 -46.851562 37.584314 -30.497700 -7.125000 0.000000 0.000000 -73.900200 50.717400 -19.515300 8.913915 10.784235 2.814050 81.178235 3.106249 24.870530 -146.640894 38.635448 -107.895417 1.234908 -1.584896 36.048198 40.705874 5.797253 5.369900 7.125000 0.000000 0.000000 40.618400 -18.004000 37.192300 
0.341384 17.409838 0.263004 -2.061179 -21.820082 4.879580 -3.037729 2.720025 3.390189 -12.837494 3.626803 -18.627464 3.206677 12.513040 39.291653 0.588292 2.962765 -9.865197 0.618600 -5.033500 -14.004100 0.510631 -3.233383 1.401657 16.351670 22.087791 -14.283788 -3.734349 -11.918095 39.256424 -2.011246 2.911827 -10.359572 -1.270300 7.143600 -20.141500 -0.636912 -0.681990 -2.828629 1.066702 -1.199077 -6.233339 3.622807 -0.426258 -3.412441 -13.853940 -9.282030 -14.746534 10.252888 -10.719130 9.597602 7.227800 -5.500200 11.195300 -9.831713 -10.700270 3.669109 -85.341146 -23.697301 51.133509 128.936949 -51.016849 -95.801302 -0.062648 2.625447 17.977108 -47.280062 37.319184 -30.679900 -7.125000 0.000000 0.000000 -73.776200 50.518100 -18.913700 8.914125 10.781534 2.810871 81.327330 3.046259 24.699278 -146.642363 38.651307 -107.886216 1.235174 -1.587774 36.088711 40.783526 5.788713 5.379500 7.125000 0.000000 0.000000 40.640100 -17.974600 37.276600 
0.341171 17.407923 0.260345 -2.025485 -21.713941 4.845576 -3.030867 2.718338 3.385581 -12.851905 3.611110 -18.642583 3.223663 12.526158 39.338800 0.640918 2.826713 -9.831745 0.606300 -4.984200 -13.863500 0.508381 -3.232244 1.402219 16.341689 22.091596 -14.279047 -3.746777 -11.934566 39.316841 -1.969438 2.755697 -10.427383 -1.280200 7.170300 -20.220900 -0.665081 -0.682382 -2.815338 1.045073 -1.199496 -6.202489 3.610336 -0.426365 -3.399542 -13.813677 -9.268864 -14.649098 10.277709 -10.709839 9.545393 7.238000 -5.493500 11.141900 -9.836660 -10.687913 3.662936 -85.281327 -23.620807 51.141657 128.999143 -50.993131 -95.844953 -0.107561 2.644060 18.136544 -48.018938 37.142253 -31.171000 -7.125000 0.000000 0.000000 -73.901700 50.313000 -18.456800 8.912749 10.778015 2.812250 81.362333 3.010570 24.656568 -146.625543 38.671855 -107.869637 1.230762 -1.592126 36.188800 40.836928 5.773791 5.381200 7.125000 0.000000 0.000000 40.657400 -17.959600 37.331600 
0.342022 17.404626 0.256410 -2.025342 -21.638238 4.834023 -3.021527 2.714319 3.377772 -12.837660 3.606277 -18.683820 3.243230 12.543830 39.393997 0.696393 2.690122 -9.820908 0.617500 -5.029200 -13.992000 0.504019 -3.230942 1.400175 16.361245 22.125256 -14.290731 -3.762483 -11.949864 39.378772 -1.954847 2.702519 -10.460321 -1.268200 7.138000 -20.124900 -0.668260 -0.683205 -2.826566 1.063950 -1.199755 -6.148912 3.638101 -0.427012 -3.324075 -13.858276 -9.281856 -14.664521 10.296501 -10.713647 9.519569 7.255600 -5.495300 11.135900 -9.830780 -10.688499 3.664575 -85.250771 -23.642311 51.186696 128.950591 -51.008951 -95.810863 -0.095978 2.639580 18.123891 -47.862080 37.187786 -31.072300 -7.125000 0.000000 0.000000 -73.886600 50.360200 -18.571800 8.905512 10.778044 2.818226 81.328448 3.057808 24.631428 -146.571579 38.710931 -107.832799 1.226721 -1.594526 36.233357 40.876865 5.748188 5.371600 7.125000 0.000000 0.000000 40.674800 -17.960600 37.363700 
0.343617 17.401861 0.253432 -2.022241 -21.560703 4.842192 -3.012334 2.707417 3.367856 -12.838929 3.606730 -18.744002 3.261645 12.562223 39.452185 0.729614 2.605683 -9.806397 0.602800 -4.970100 -13.823300 0.500143 -3.228809 1.397683 16.365497 22.173218 -14.317022 -3.778529 -11.964787 39.437749 -1.948828 2.678156 -10.489282 -1.231300 7.037200 -19.825600 -0.651009 -0.690204 -2.851365 1.083588 -1.209024 -6.110565 3.660754 -0.432566 -3.248299 -13.949202 -9.300491 -14.749693 10.328030 -10.717851 9.553651 7.289800 -5.499000 11.186800 -9.823950 -10.691633 3.664451 -85.255030 -23.656456 51.278420 128.838669 -51.054799 -95.730491 -0.059457 2.625090 17.960212 -47.296031 37.416722 -30.758200 -7.125000 0.000000 0.000000 -73.910900 50.564300 -19.125000 8.899078 10.778208 2.821711 81.278202 3.086581 24.641341 -146.541881 38.724171 -107.818692 1.211448 -1.593474 36.255966 40.777739 5.637328 5.270000 7.125000 0.000000 0.000000 40.684000 -18.100900 37.178800 
0.345957 17.399415 0.250029 -2.019266 -21.430521 4.864394 -3.003721 2.696873 3.355948 -12.831823 3.563225 -18.801511 3.281374 12.580938 39.510886 0.781594 2.472308 -9.776301 0.590500 -4.919900 -13.680300 0.495335 -3.224766 1.398182 16.366204 22.164903 -14.371072 -3.792160 -11.980794 39.493022 -1.939101 2.625751 -10.562163 -1.255600 7.103700 -20.022900 -0.632605 -0.748340 -2.845372 1.146249 -1.287400 -6.115200 3.727168 -0.469594 -3.245416 -14.112133 -9.274206 -14.753097 10.345412 -10.644975 9.592194 7.338300 -5.480200 11.209500 -9.817146 -10.687478 3.656296 -85.365343 -23.606613 51.257444 128.762921 -51.101150 -95.674024 -0.055067 2.616848 17.945351 -47.223561 37.366105 -30.672000 -7.125000 0.000000 0.000000 -73.817600 50.551900 -19.029800 8.896733 10.768882 2.822856 81.144116 3.039610 24.685987 -146.522313 38.727210 -107.812534 1.204300 -1.590737 36.284532 40.682394 5.618173 5.237200 7.125000 0.000000 0.000000 40.666900 -18.161100 37.059000 
